<?xml version="1.0" encoding="UTF-8" standalone="no"?>
<!-- Created with Inkscape (http://www.inkscape.org/) -->

<svg
   width="210mm"
   height="297mm"
   viewBox="0 0 210 297"
   version="1.1"
   id="svg1"
   inkscape:version="1.3.2 (091e20ef0f, 2023-11-25)"
   sodipodi:docname="logo_and_colors.svg"
   xmlns:inkscape="http://www.inkscape.org/namespaces/inkscape"
   xmlns:sodipodi="http://sodipodi.sourceforge.net/DTD/sodipodi-0.dtd"
   xmlns="http://www.w3.org/2000/svg"
   xmlns:svg="http://www.w3.org/2000/svg">
  <sodipodi:namedview
     id="namedview1"
     pagecolor="#ffffff"
     bordercolor="#666666"
     borderopacity="1.0"
     inkscape:showpageshadow="2"
     inkscape:pageopacity="0.0"
     inkscape:pagecheckerboard="0"
     inkscape:deskcolor="#d1d1d1"
     inkscape:document-units="mm"
     inkscape:zoom="0.75465396"
     inkscape:cx="289.53668"
     inkscape:cy="449.21251"
     inkscape:window-width="1530"
     inkscape:window-height="1235"
     inkscape:window-x="480"
     inkscape:window-y="10"
     inkscape:window-maximized="0"
     inkscape:current-layer="layer1" />
  <defs
     id="defs1">
    <rect
       x="38.386016"
       y="149.62583"
       width="107.63859"
       height="27.638975"
       id="rect3" />
    <rect
       x="38.386017"
       y="149.62582"
       width="107.63859"
       height="27.638975"
       id="rect3-7" />
    <rect
       x="38.386017"
       y="149.62582"
       width="107.63859"
       height="27.638975"
       id="rect3-7-1" />
  </defs>
  <g
     inkscape:label="Layer 1"
     inkscape:groupmode="layer"
     id="layer1">
    <path
       style="fill:#000000"
       d="m 32.200816,129.97134 -0.16832,-0.44097 0.0912,-27.16389 0.0912,-27.163888 9.44512,-0.094 9.44512,-0.094 2.28475,0.52987 2.28475,0.52987 2.16128,1.09102 2.16129,1.09101 1.72234,1.611051 1.72234,1.61105 1.08147,2.19678 1.08147,2.19678 0.38415,2.48179 0.38414,2.48178 -0.38591,2.32894 -0.38592,2.32893 -0.88171,1.92591 -0.88172,1.92592 -1.70037,1.820357 -1.70036,1.82035 -1.85209,1.04681 -1.85209,1.04681 0.25132,0.40729 0.25132,0.4073 8.58811,11.75308 8.58811,11.75308 0.19415,0.50595 0.19415,0.50595 -4.88844,-0.008 -4.88843,-0.008 -8.94931,-11.99846 -8.9493,-11.99846 -3.57431,0.10008 -3.5743,0.10007 -0.0929,11.90625 -0.0929,11.90626 h -3.71054 -3.71055 z m 20.03862,-31.864217 1.6294,-0.5552 1.39766,-1.51627 1.39766,-1.51628 0.39805,-1.91739 0.39804,-1.91739 -0.40395,-1.88357 -0.40395,-1.88358 -1.39176,-1.50987 -1.39175,-1.50987 -1.6294,-0.55519 -1.62941,-0.5552 h -5.40521 -5.40521 v 7.9375 7.9375 h 5.40521 5.40521 z m 26.52073,31.687827 0.23049,-0.61736 10.97997,-27.07569 10.979974,-27.075698 h 3.78259 3.7826 l 0.17761,0.44097 0.17762,0.44097 10.83441,26.634728 10.8344,26.63472 0.17937,0.61736 0.17936,0.61737 h -4.20637 -4.20637 l -2.62575,-6.52471 -2.62574,-6.52471 -12.50302,0.0865 -12.503024,0.0865 -2.62758,6.43819 -2.62758,6.4382 h -4.22172 -4.22173 z m 35.124084,-20.46111 0.001,-0.26458 -4.49923,-11.552787 -4.49923,-11.55278 -0.17639,0.008 -0.17639,0.008 -4.31611,11.19179 -4.316114,11.191797 -0.21955,0.61736 -0.21955,0.61736 h 9.209964 9.20997 z m 18.9311,20.84329 -0.23519,-0.23519 V 102.48407 75.026202 h 3.88056 3.88055 v 27.693058 27.69306 h -3.64537 -3.64537 z m 19.16759,-27.45787 V 75.026202 h 3.88055 3.88056 V 98.838703 122.6512 h 13.05278 13.05277 v 3.88056 3.88056 h -16.93333 -16.93333 z"
       id="path1" />
    <rect
       style="opacity:1;fill:#c76310;fill-opacity:1;stroke:none;stroke-width:0.2453;stroke-linejoin:round"
       id="rect2"
       width="20.039446"
       height="18.637039"
       x="152.72858"
       y="31.821796" />
    <rect
       style="fill:#ff8900;fill-opacity:1;stroke:none;stroke-width:0.2453;stroke-linejoin:round"
       id="rect2-9"
       width="20.039446"
       height="18.637039"
       x="94.134888"
       y="31.844902" />
    <rect
       style="fill:#e43206;fill-opacity:1;stroke:none;stroke-width:0.2453;stroke-linejoin:round"
       id="rect2-1"
       width="20.039446"
       height="18.637039"
       x="34.116341"
       y="31.743914" />
    <g
       id="g5">
      <g
         id="g4">
        <path
           style="fill:#ff8900;fill-opacity:1;fill-rule:evenodd;stroke:none;stroke-width:0.86393px;stroke-linecap:butt;stroke-linejoin:miter;stroke-opacity:1"
           d="M 48.667697,249.17039 H 160.50906 V 141.03791 Z"
           id="path3" />
        <path
           style="fill:#e43206;fill-opacity:1;fill-rule:evenodd;stroke:none;stroke-width:0.86393px;stroke-linecap:butt;stroke-linejoin:miter;stroke-opacity:1"
           d="M 160.34192,141.18811 H 48.500556 V 249.3206 Z"
           id="path3-9" />
      </g>
      <path
         style="fill:#ffffff;fill-opacity:1;stroke:#000000;stroke-width:1.328;stroke-dasharray:none;stroke-opacity:1"
         d="m 57.685115,209.6753 -0.105658,-0.2771 0.05736,-17.0697 0.05735,-17.0697 5.935289,-0.0591 5.93529,-0.0591 1.435738,0.33298 1.435713,0.33296 1.358134,0.68557 1.358161,0.68562 1.082306,1.01237 1.082308,1.01238 0.679609,1.38045 0.679585,1.38045 0.241286,1.55954 0.241288,1.55953 -0.242579,1.46351 -0.242579,1.46349 -0.554058,1.21023 -0.554083,1.21026 -1.068512,1.14389 -1.068486,1.1439 -1.163837,0.65784 -1.163864,0.6578 0.157843,0.25601 0.157846,0.25602 5.396731,7.38559 5.396732,7.3856 0.121939,0.31793 0.121939,0.31794 -3.071896,-0.005 -3.071871,-0.005 -5.623708,-7.5398 -5.623708,-7.53978 -2.246093,0.0628 -2.246068,0.0628 -0.05838,7.48186 -0.05838,7.48184 h -2.331681 -2.331707 z m 12.592193,-20.02336 1.023923,-0.34889 0.878272,-0.95282 0.878297,-0.95283 0.250071,-1.20489 0.250072,-1.20489 -0.253688,-1.18364 -0.253946,-1.18362 -0.874578,-0.94879 -0.874578,-0.94881 -1.023922,-0.34887 -1.023897,-0.34889 h -3.396628 -3.396627 v 4.98791 4.98789 h 3.396627 3.396628 z m 16.665564,19.9125 0.144927,-0.38794 6.899768,-17.01427 6.899793,-17.01429 h 2.37697 2.37697 l 0.1116,0.27711 0.11161,0.2771 6.80832,16.73718 6.80829,16.73717 0.11264,0.38794 0.11263,0.38797 h -2.64328 -2.64328 l -1.65001,-4.1001 -1.65,-4.10011 -7.85686,0.0542 -7.856859,0.0542 -1.651168,4.04573 -1.651166,4.04576 h -2.652898 -2.652925 z m 22.071858,-12.85768 6.2e-4,-0.16637 -2.82731,-7.25973 -2.8273,-7.25974 -0.11083,0.005 -0.11083,0.005 -2.71224,7.03286 -2.712211,7.03292 -0.137953,0.38794 -0.137952,0.38795 h 5.787496 5.78752 z m 11.89623,13.09787 -0.14777,-0.14777 v -17.25445 -17.25444 h 2.43853 2.43853 v 17.40224 17.40223 h -2.29074 -2.29073 z m 12.04485,-17.25445 v -17.40224 h 2.43852 2.43853 v 14.96372 14.96367 h 8.20235 8.20231 v 2.43856 2.43852 h -10.64084 -10.64087 z"
         id="path1-2" />
    </g>
    <text
       xml:space="preserve"
       transform="matrix(0.26458333,0,0,0.26458333,20.377544,13.445825)"
       id="text3"
       style="font-style:normal;font-weight:normal;font-size:21.3333px;line-height:125%;font-family:sans-serif;letter-spacing:0px;word-spacing:0px;white-space:pre;shape-inside:url(#rect3);display:inline;fill:#000000;fill-opacity:1;stroke:none;stroke-width:1px;stroke-linecap:butt;stroke-linejoin:miter;stroke-opacity:1"><tspan
         x="38.386719"
         y="168.49997"
         id="tspan5"><tspan
           style="font-family:Monospace;-inkscape-font-specification:Monospace"
           id="tspan4">e43206ff</tspan></tspan></text>
    <text
       xml:space="preserve"
       transform="matrix(0.26458333,0,0,0.26458333,140.00067,13.069559)"
       id="text3-3"
       style="font-style:normal;font-weight:normal;font-size:21.3333px;line-height:125%;font-family:sans-serif;letter-spacing:0px;word-spacing:0px;white-space:pre;shape-inside:url(#rect3-7);display:inline;fill:#000000;fill-opacity:1;stroke:none;stroke-width:1px;stroke-linecap:butt;stroke-linejoin:miter;stroke-opacity:1"><tspan
         x="38.386719"
         y="168.49997"
         id="tspan6">c76310ff</tspan></text>
    <text
       xml:space="preserve"
       transform="matrix(0.26458333,0,0,0.26458333,82.331449,13.24106)"
       id="text3-3-8"
       style="font-style:normal;font-weight:normal;font-size:21.3333px;line-height:125%;font-family:sans-serif;letter-spacing:0px;word-spacing:0px;white-space:pre;shape-inside:url(#rect3-7-1);display:inline;fill:#000000;fill-opacity:1;stroke:none;stroke-width:1px;stroke-linecap:butt;stroke-linejoin:miter;stroke-opacity:1"><tspan
         x="38.386719"
         y="168.49997"
         id="tspan7">ff8900ff</tspan></text>
  </g>
</svg>
